:SAMPLES-PER-SECOND 30
:FULLY-SPECIFIED
:DEGREES
229
root  -0.988078 31.4179 -15.2963 -162.059 6.0708 -173.688
RightUpLeg  -75.2217 -6.31383 15.4855
RightLeg  61.7301 12.2877 -8.52024
RightFoot  -9.82294 -0.143571 5.69744
RightToes  -1.16415e-010 -3.18055e-015 -2.98177e-016
Spine  41.5822 0.133049 1.08622
Spine1  -10.0226 -1.91262 1.18757
HEad  -34.4514 -10.0798 9.47963
LeftShoulder1  -3.88251e-019 9.70628e-020 -3.87848e-018
LeftArm  -31.6757 32.1804 -32.9463
LeftForeArm  -2.14529 -38.2169 8.79883
LeftHand  -6.69714 -9.86209 49.3668
RightShoulder  4.41107 8.88824 21.6911
RightArm  9.75426 -51.1516 9.25193
RightForeArm  -7.08388 47.2738 -29.0289
RightHand  0.148277 -1.70876 4.94578
LeftUpLeg  -55.4169 6.21318 -0.268484
LeftLeg  74.3479 -10.8396 13.2429
LeftFoot  -36.6596 -1.11748 -4.87473
LeftToes  1.69338e-011 3.79281e-011 -2.20049e-011
230
root  -0.743827 30.9702 -15.9286 -162.704 5.60219 -173.463
RightUpLeg  -74.671 -4.24892 13.4172
RightLeg  54.3888 11.5055 -7.67476
RightFoot  -7.95897 -0.209611 5.05689
RightToes  -1.16415e-010 -3.18055e-015 -2.98177e-016
Spine  42.0992 -0.375559 1.908
Spine1  -9.93601 -2.27525 2.14145
HEad  -34.734 -9.99727 9.45795
LeftShoulder1  -3.88251e-019 9.70628e-020 -3.87848e-018
LeftArm  -32.8092 31.7152 -33.7037
LeftForeArm  -2.66652 -37.3768 8.49535
LeftHand  -7.02502 -9.8568 51.4838
RightShoulder  4.35734 8.86137 21.416
RightArm  8.29866 -51.9208 8.74939
RightForeArm  -6.85225 47.5283 -29.3132
RightHand  0.147716 -2.06384 5.47875
LeftUpLeg  -54.5047 6.18584 0.654639
LeftLeg  76.8529 -11.4178 13.1393
LeftFoot  -38.5842 -1.38437 -5.64932
LeftToes  1.69338e-011 3.79281e-011 -2.20049e-011
231
root  -0.399894 30.2794 -16.6637 -163.625 4.44762 -173.814
RightUpLeg  -74.8388 -2.76101 10.5013
RightLeg  52.8111 10.217 -9.31983
RightFoot  -3.41074 -0.324221 3.85524
RightToes  -1.16415e-010 -3.18055e-015 -2.98177e-016
Spine  42.3957 -0.990152 2.05173
Spine1  -9.59699 -2.92822 3.65957
HEad  -34.4685 -10.0259 9.44563
LeftShoulder1  -3.88251e-019 9.70628e-020 -3.87848e-018
LeftArm  -33.7335 31.703 -34.4542
LeftForeArm  -3.76697 -37.3305 8.42537
LeftHand  -7.47932 -10.0467 53.761
RightShoulder  4.29392 8.82678 21.095
RightArm  6.31263 -52.596 8.60987
RightForeArm  -6.70024 47.3856 -29.1701
RightHand  0.121916 -2.4389 5.22448
LeftUpLeg  -54.0779 5.75441 1.30245
LeftLeg  80.9723 -12.3594 12.6542
LeftFoot  -40.1032 -1.75254 -6.83302
LeftToes  1.69338e-011 3.79281e-011 -2.20049e-011
232
root  -0.011444 29.4362 -17.443 -164.784 3.42039 -174.581
RightUpLeg  -76.3894 -2.63002 8.95996
RightLeg  57.6493 10.2369 -11.0583
RightFoot  -0.0683363 -0.275764 2.29417
RightToes  -1.16415e-010 -3.18055e-015 -2.98177e-016
Spine  42.4537 -1.44485 1.63642
Spine1  -8.92804 -3.47783 4.966
HEad  -33.839 -10.2415 9.49907
LeftShoulder1  -3.88251e-019 9.70628e-020 -3.87848e-018
LeftArm  -34.7791 31.7969 -35.4931
LeftForeArm  -5.76821 -38.1129 8.58185
LeftHand  -7.83076 -10.2087 55.4055
RightShoulder  4.29109 8.78012 21.1628
RightArm  4.42379 -52.9357 8.17145
RightForeArm  -6.90694 47.3512 -29.1203
RightHand  0.0895573 -2.68788 4.35947
LeftUpLeg  -53.5909 5.50152 1.52995
LeftLeg  85.7367 -13.3462 12.1703
LeftFoot  -41.4901 -2.24 -8.38675
LeftToes  1.69338e-011 3.79281e-011 -2.20049e-011
233
root  0.344224 28.619 -18.1872 -165.96 3.28618 -175.089
RightUpLeg  -78.0104 -3.01518 9.16592
RightLeg  64.1762 11.4334 -11.6952
RightFoot  -1.18764 -0.053679 0.407854
RightToes  -1.16415e-010 -3.18055e-015 -2.98177e-016
Spine  42.4211 -1.68058 1.38319
Spine1  -7.93238 -3.55557 5.2546
HEad  -33.5639 -10.4866 9.64821
LeftShoulder1  -3.88251e-019 9.70628e-020 -3.87848e-018
LeftArm  -35.9647 31.8092 -36.8446
LeftForeArm  -8.01522 -39.3439 8.88237
LeftHand  -7.99722 -10.2233 56.3552
RightShoulder  4.34127 8.73223 21.556
RightArm  2.52663 -52.8373 8.05087
RightForeArm  -7.35656 47.2477 -28.9814
RightHand  0.0361995 -2.84036 2.28615
LeftUpLeg  -52.3794 5.67432 1.94399
LeftLeg  89.8098 -14.1323 11.9108
LeftFoot  -43.3018 -2.8536 -10.1035
LeftToes  1.69338e-011 3.79281e-011 -2.20049e-011
234
root  0.617767 27.9854 -18.8405 -166.72 4.11844 -174.838
RightUpLeg  -78.9737 -2.54493 10.0439
RightLeg  68.8627 12.4339 -11.7579
RightFoot  -4.82794 0.0969354 -1.15734
RightToes  -1.16415e-010 -3.18055e-015 -2.98177e-016
Spine  42.5092 -1.82983 1.86546
Spine1  -7.10481 -3.30773 4.89181
HEad  -33.9614 -10.4412 9.71985
LeftShoulder1  -3.88251e-019 9.70628e-020 -3.87848e-018
LeftArm  -36.802 32.0578 -38.124
LeftForeArm  -9.74578 -40.6299 9.24092
LeftHand  -8.10734 -10.2468 56.9345
RightShoulder  4.38172 8.71579 21.8327
RightArm  0.304533 -52.3496 9.21337
RightForeArm  -7.31374 46.5419 -28.2475
RightHand  -0.0478114 -2.78637 -1.39959
LeftUpLeg  -50.7065 5.80761 3.10828
LeftLeg  92.6789 -14.6925 11.9474
LeftFoot  -45.0922 -3.56829 -11.9695
LeftToes  1.69338e-011 3.79281e-011 -2.20049e-011
235
root  0.84508 27.5172 -19.4553 -166.82 5.17099 -174.327
RightUpLeg  -79.7533 -1.50123 10.7833
RightLeg  71.954 13.031 -11.9411
RightFoot  -7.56366 0.0877438 -1.35214
RightToes  -1.16415e-010 -3.18055e-015 -2.98177e-016
Spine  42.7999 -2.06072 2.50079
Spine1  -7.09731 -3.14286 4.63257
HEad  -34.6856 -10.0385 9.56791
LeftShoulder1  -3.88251e-019 9.70628e-020 -3.87848e-018
LeftArm  -37.0396 32.7418 -39.1247
LeftForeArm  -10.5729 -41.7471 9.60095
LeftHand  -8.26631 -10.4095 57.3569
RightShoulder  4.38598 8.7471 21.8003
RightArm  -1.78226 -51.6048 11.3947
RightForeArm  -6.28323 45.3265 -27.1062
RightHand  -0.148661 -2.47928 -5.36934
LeftUpLeg  -49.3562 5.41928 4.42534
LeftLeg  94.7756 -15.1587 12.2776
LeftFoot  -46.1429 -4.32569 -14.0861
LeftToes  1.69338e-011 3.79281e-011 -2.20049e-011
236
root  1.05968 27.1881 -20.0405 -166.483 5.88908 -174.075
RightUpLeg  -80.5507 -0.805818 11.3921
RightLeg  74.4992 13.4934 -12.2391
RightFoot  -8.93838 0.0630486 -1.05205
RightToes  -1.16415e-010 -3.18055e-015 -2.98177e-016
Spine  43.2365 -2.36981 2.81964
Spine1  -7.79234 -3.174 4.64789
HEad  -35.4442 -9.56337 9.27974
LeftShoulder1  -3.88251e-019 9.70628e-020 -3.87848e-018
LeftArm  -37.0285 33.3858 -40.1366
LeftForeArm  -10.1886 -42.4309 9.87636
LeftHand  -8.48311 -10.6724 57.7881
RightShoulder  4.37304 8.79746 21.6285
RightArm  -2.92085 -50.807 13.5431
RightForeArm  -4.54834 44.3562 -26.2947
RightHand  -0.225785 -2.171 -7.66088
LeftUpLeg  -48.5651 4.78969 5.12245
LeftLeg  96.1455 -15.5971 13.1022
LeftFoot  -46.4069 -5.04581 -16.3336
LeftToes  1.69338e-011 3.79281e-011 -2.20049e-011
237
root  1.24187 27.0779 -20.5263 -166.006 6.43187 -173.909
RightUpLeg  -80.8655 -0.596144 12.1929
RightLeg  76.1153 13.84 -12.1569
RightFoot  -10.3231 0.0664974 -1.52049
RightToes  -1.16415e-010 -3.18055e-015 -2.98177e-016
Spine  43.7148 -2.64281 3.20303
Spine1  -8.43177 -3.20792 4.71559
HEad  -36.3131 -9.24565 9.01445
LeftShoulder1  -3.88251e-019 9.70628e-020 -3.87848e-018
LeftArm  -37.1328 33.3835 -41.4765
LeftForeArm  -8.51253 -42.4283 9.96547
LeftHand  -8.72283 -10.9618 58.2517
RightShoulder  4.35785 8.82732 21.4815
RightArm  -3.02541 -50.0678 15.2085
RightForeArm  -2.71288 44.0725 -26.1395
RightHand  -0.244512 -1.99711 -7.87643
LeftUpLeg  -47.871 4.39147 5.31731
LeftLeg  96.1883 -15.8865 14.5216
LeftFoot  -46.3212 -5.62241 -18.2669
LeftToes  1.69338e-011 3.79281e-011 -2.20049e-011
238
root  1.38059 27.209 -20.9205 -165.403 7.07068 -173.682
RightUpLeg  -80.5322 -0.446572 12.9681
RightLeg  76.4142 14.0002 -11.5194
RightFoot  -11.8883 0.0618832 -2.26889
RightToes  -1.16415e-010 -3.18055e-015 -2.98177e-016
Spine  44.0808 -2.80433 3.78783
Spine1  -8.68919 -3.15582 4.82492
HEad  -37.2562 -9.00342 8.81256
LeftShoulder1  -3.88251e-019 9.70628e-020 -3.87848e-018
LeftArm  -37.2148 32.756 -43.0128
LeftForeArm  -6.30396 -41.8694 9.87406
LeftHand  -8.89176 -11.1929 58.4849
RightShoulder  4.34191 8.84229 21.3575
RightArm  -2.85586 -49.3666 16.7086
RightForeArm  -1.26873 44.1978 -26.338
RightHand  -0.231833 -1.87138 -7.1917
LeftUpLeg  -46.8396 4.17069 5.46992
LeftLeg  94.8944 -15.807 15.7989
LeftFoot  -46.3347 -5.99105 -19.462
LeftToes  1.69338e-011 3.79281e-011 -2.20049e-011
239
root  1.50284 27.48 -21.3145 -164.576 7.72025 -173.668
RightUpLeg  -79.9991 -0.217226 13.2819
RightLeg  76.0412 14.0518 -10.7538
RightFoot  -12.934 0.0450201 -2.38543
RightToes  -1.16415e-010 -3.18055e-015 -2.98177e-016
Spine  44.2112 -2.87851 4.1369
Spine1  -8.92861 -3.12555 5.13774
HEad  -37.9663 -8.69316 8.62945
LeftShoulder1  -3.88251e-019 9.70628e-020 -3.87848e-018
LeftArm  -36.9927 31.9673 -44.378
LeftForeArm  -4.69022 -41.2095 9.71604
LeftHand  -8.91133 -11.2965 58.2791
RightShoulder  4.32721 8.86586 21.2256
RightArm  -3.00647 -48.7805 18.2264
RightForeArm  -0.580631 44.4298 -26.5932
RightHand  -0.219323 -1.79879 -6.65584
LeftUpLeg  -45.6161 3.84987 5.60073
LeftLeg  93.0673 -15.3542 15.9904
LeftFoot  -46.579 -6.21364 -20.0325
LeftToes  1.69338e-011 3.79281e-011 -2.20049e-011
240
root  1.62952 27.8158 -21.7404 -163.591 8.20387 -173.963
RightUpLeg  -79.5218 -0.0690402 13.229
RightLeg  75.5427 14.0484 -10.257
RightFoot  -13.5653 0.0339316 -2.28396
RightToes  -1.16415e-010 -3.18055e-015 -2.98177e-016
Spine  44.1499 -2.93176 4.13869
Spine1  -9.4287 -3.17992 5.63677
HEad  -38.3295 -8.35069 8.42448
LeftShoulder1  -3.88251e-019 9.70628e-020 -3.87848e-018
LeftArm  -36.526 31.3111 -45.3776
LeftForeArm  -3.93502 -40.7525 9.58933
LeftHand  -8.83736 -11.3138 57.8218
RightShoulder  4.31711 8.88507 21.1296
RightArm  -3.21589 -48.4691 19.38
RightForeArm  -0.751244 44.8983 -27.0251
RightHand  -0.212609 -1.76707 -6.39013
LeftUpLeg  -44.5923 3.5549 5.51155
LeftLeg  91.1953 -14.7725 15.3319
LeftFoot  -46.6832 -6.3245 -20.3243
LeftToes  1.69338e-011 3.79281e-011 -2.20049e-011
241
root  1.76083 28.2215 -22.1681 -162.654 8.50597 -174.304
RightUpLeg  -78.8509 -0.0617565 13.1782
RightLeg  74.7453 13.9715 -9.94476
RightFoot  -14.3192 0.0186048 -2.58879
RightToes  -1.16415e-010 -3.18055e-015 -2.98177e-016
Spine  44.0426 -2.99155 4.14154
Spine1  -10.0145 -3.26027 6.22126
HEad  -38.519 -8.06287 8.15765
LeftShoulder1  -3.88251e-019 9.70628e-020 -3.87848e-018
LeftArm  -36.0355 30.8205 -46.0144
LeftForeArm  -3.46461 -40.4961 9.52141
LeftHand  -8.76025 -11.332 57.3436
RightShoulder  4.32526 8.88728 21.1749
RightArm  -2.732 -48.3664 19.6
RightForeArm  -1.53334 45.7309 -27.7884
RightHand  -0.219344 -1.65773 -6.41817
LeftUpLeg  -43.7605 3.6268 5.23923
LeftLeg  89.1229 -14.2057 14.8681
LeftFoot  -46.1294 -6.23007 -20.3722
LeftToes  1.69338e-011 3.79281e-011 -2.20049e-011
242
root  1.90028 28.6662 -22.5952 -161.887 8.65001 -174.621
RightUpLeg  -77.8907 -0.0925981 13.066
RightLeg  73.648 13.8396 -9.70333
RightFoot  -15.1731 -0.0018753 -2.87037
RightToes  -1.16415e-010 -3.18055e-015 -2.98177e-016
Spine  43.886 -3.04857 4.2539
Spine1  -10.457 -3.34062 6.91501
HEad  -38.574 -7.84418 7.79065
LeftShoulder1  -3.88251e-019 9.70628e-020 -3.87848e-018
LeftArm  -35.5566 30.4794 -46.3148
LeftForeArm  -2.93077 -40.3754 9.50585
LeftHand  -8.64853 -11.3428 56.6939
RightShoulder  4.36978 8.90102 21.4187
RightArm  -1.29687 -48.2291 18.7234
RightForeArm  -2.47485 46.7013 -28.716
RightHand  -0.253442 -1.37817 -6.9607
LeftUpLeg  -42.8885 4.01751 4.90086
LeftLeg  86.8897 -13.6562 14.7831
LeftFoot  -44.9884 -5.96562 -20.2396
LeftToes  1.69338e-011 3.79281e-011 -2.20049e-011
243
root  2.05091 29.0646 -23.0453 -161.235 8.63461 -175.136
RightUpLeg  -76.9629 -0.0992666 12.5719
RightLeg  72.7372 13.6994 -9.66666
RightFoot  -15.9558 -0.0120899 -2.59503
RightToes  -1.16415e-010 -3.18055e-015 -2.98177e-016
Spine  43.4913 -3.1111 4.30262
Spine1  -10.7054 -3.46599 7.70373
HEad  -38.3346 -7.71975 7.31034
LeftShoulder1  -3.88251e-019 9.70628e-020 -3.87848e-018
LeftArm  -35.0562 30.2555 -46.2977
LeftForeArm  -2.43175 -40.3991 9.54018
LeftHand  -8.43099 -11.2748 55.6792
RightShoulder  4.42322 8.92954 21.6886
RightArm  0.3321 -48.1007 17.3256
RightForeArm  -3.15858 47.5385 -29.5601
RightHand  -0.306645 -0.987986 -7.76538
LeftUpLeg  -42.0603 4.36411 4.45911
LeftLeg  84.9798 -13.1905 14.353
LeftFoot  -43.8058 -5.77269 -20.374
LeftToes  1.69338e-011 3.79281e-011 -2.20049e-011
